PathFileType	3	(X/Y/Z)	F:\ViconData\AntennenMessung\Messung1\Session1\ID20.trc
DataRate	CameraRate	NumFrames	NumMarkers	Units	OrigDataRate	OrigDataStartFrame	OrigNumFrames
120.0	120.0	6	70	mm	120.0	907	1036	
Frame#	Time	Ashort			Along			Atop			A4			Bshort			Blong			Btop			B4			Cshort			Clong			Ctop			C4			Dshort			Dlong			Dtop			D4			Eshort			Elong			Etop			E4			Fshort			Flong			Ftop			F4			Gshort			Glong			Gtop			G4			Hshort			Hlong			Htop			H4			I1			I2			I3			I4			I5			WandAshort			WandAlong			WandAtop			WandA4			WandA15			WandBshort			WandB4			WandB5			WandBtop			WandBlong			WandCshort			WandClong			WandCtop			WandC4			WandC5			Acenter			Aantenna			Bcenter			Bantenna			Ccenter			Cantenna			Dcenter			Dantenna			Ecenter			Eantenna			Fcenter			Fantenna			Gcenter			Gantenna			Hcenter			Hantenna			Icenter			Iantenna			
		X1	Y1	Z1	X2	Y2	Z2	X3	Y3	Z3	X4	Y4	Z4	X5	Y5	Z5	X6	Y6	Z6	X7	Y7	Z7	X8	Y8	Z8	X9	Y9	Z9	X10	Y10	Z10	X11	Y11	Z11	X12	Y12	Z12	X13	Y13	Z13	X14	Y14	Z14	X15	Y15	Z15	X16	Y16	Z16	X17	Y17	Z17	X18	Y18	Z18	X19	Y19	Z19	X20	Y20	Z20	X21	Y21	Z21	X22	Y22	Z22	X23	Y23	Z23	X24	Y24	Z24	X25	Y25	Z25	X26	Y26	Z26	X27	Y27	Z27	X28	Y28	Z28	X29	Y29	Z29	X30	Y30	Z30	X31	Y31	Z31	X32	Y32	Z32	X33	Y33	Z33	X34	Y34	Z34	X35	Y35	Z35	X36	Y36	Z36	X37	Y37	Z37	X38	Y38	Z38	X39	Y39	Z39	X40	Y40	Z40	X41	Y41	Z41	X42	Y42	Z42	X43	Y43	Z43	X44	Y44	Z44	X45	Y45	Z45	X46	Y46	Z46	X47	Y47	Z47	X48	Y48	Z48	X49	Y49	Z49	X50	Y50	Z50	X51	Y51	Z51	X52	Y52	Z52	X53	Y53	Z53	X54	Y54	Z54	X55	Y55	Z55	X56	Y56	Z56	X57	Y57	Z57	X58	Y58	Z58	X59	Y59	Z59	X60	Y60	Z60	X61	Y61	Z61	X62	Y62	Z62	X63	Y63	Z63	X64	Y64	Z64	X65	Y65	Z65	X66	Y66	Z66	X67	Y67	Z67	X68	Y68	Z68	X69	Y69	Z69	X70	Y70	Z70	
907	7.55	-1038.2369	214.50667	-1644.1895	-1109.3881	204.17476	-1599.3374	-1063.9485	172.50191	-1625.5024	-1054.2172	262.32382	-1635.0377	-1352.9725	234.85034	1003.7145	-1281.3419	227.13049	1052.4359	-1322.7174	194.01753	1020.8885	-1284.6718	287.85214	1052.7698	813.95496	187.76096	1209.4939	892.44177	178.39841	1179.2542	844.2644	145.41324	1198.3658	860.92432	292.4863	1168.3744	1115.6926	209.83481	-1401.7894	1056.1243	194.00002	-1460.3729	1095.0199	162.341	-1423.9166	1069.819	238.53864	-1425.776	-1204.5208	1685.9178	-1563.1718	-1129.1586	1688.2823	-1606.0037	-1173.1842	1724.2966	-1581.917	-1134.0658	1580.96	-1603.8743	-1240.5143	1698.7271	1118.3121	-1309.2792	1698.6921	1071.9486	-1270.377	1736.2592	1096.9319	-1245.4474	1592.6919	1110.7269	988.89667	1664.2349	1162.2842	955.83801	1702.4623	1181.1343	922.80951	1662.0504	1215.2502	939.76349	1659.4209	1159.9049	998.92975	1668.4852	-1579.5286	1058.7804	1670.1428	-1518.6744	1024.9108	1708.0366	-1551.1604	1059.1915	1672.1454	-1585.5043	-113.41698	159.93294	-223.97641	-29.19272	168.74426	-221.15703	-72.202744	127.03045	-224.68022	-75.799744	164.98166	-254.86868	-78.470718	163.3071	-175.48796																																														-1068.968	210.04416	-1624.8173	-1074.1357	248.69383	-1624.1118	-1321.5415	231.46294	1025.093	-1320.3252	270.20056	1029.4425	848.05609	183.69308	1196.3552	851.89502	222.45026	1194.3196	1088.6746	202.65276	-1428.3606	1082.646	240.95197	-1432.5828	-1171.8964	1686.9414	-1581.7135	-1170.5529	1647.9651	-1581.5013	-1270.9412	1698.7115	1097.7971	-1271.5272	1659.7263	1098.6957	953.6778	1704.9602	1182.3658	973.01593	1731.842	1161.7648	1026.4146	1669.2465	-1551.5828	1027.9253	1630.278	-1552.0072	-76.118492	163.83501	-222.72783	-80.238815	202.56229	-220.67348
908	7.5583333	-1038.2533	214.45694	-1644.167	-1109.3752	204.22031	-1599.3527	-1063.9032	172.60498	-1625.4636	-1054.2423	262.26624	-1635.0114	-1352.9617	234.86235	1003.682	-1281.291	227.04959	1052.5029	-1322.6764	193.99077	1020.9348	-1284.7596	287.85834	1052.8684	813.88892	187.7218	1209.5222	892.44519	178.40399	1179.2184	844.42554	145.368	1198.4056	860.89111	292.45694	1168.4799	1115.6732	209.55011	-1401.6202	1056.0092	193.80608	-1460.2772	1095.031	162.46011	-1423.9543	1069.8074	238.56534	-1425.8113	-1204.5869	1685.9753	-1563.0339	-1129.1729	1688.2811	-1606.011	-1173.2164	1724.2346	-1581.8352	-1134.066	1580.9692	-1603.8894	-1239.6929	1699.1625	1119.5344	-1309.2766	1698.6929	1071.9526	-1270.3873	1736.2832	1096.9331	-1245.452	1592.7168	1110.7299	988.86951	1664.2274	1162.283	955.82977	1702.3602	1181.1329	922.93683	1662.0085	1215.3334	939.76483	1659.4119	1159.9307	998.93542	1668.5076	-1579.5243	1058.6615	1669.9691	-1518.6931	1024.9215	1708.0281	-1551.1777	1059.1929	1672.1367	-1585.499	-113.41372	159.9678	-224.02937	-29.161072	168.74161	-221.1405	-72.210335	127.01425	-224.69287	-75.79335	164.99155	-254.86455	-78.46653	163.29715	-175.44682																																														-1068.9066	210.04498	-1624.8521	-1074.072	248.69624	-1624.2208	-1321.46	231.42839	1025.1403	-1320.2015	270.16446	1029.4917	848.15619	183.65724	1196.3032	851.9325	222.4156	1194.1753	1088.649	202.41904	-1428.1882	1082.5316	240.72186	-1432.2465	-1171.959	1686.9729	-1581.6278	-1170.6437	1647.9957	-1581.411	-1270.9668	1698.9514	1098.1489	-1271.5719	1659.9767	1099.4185	953.63495	1704.8933	1182.385	972.88733	1731.7887	1161.7214	1026.3278	1669.1777	-1551.6249	1027.7384	1630.2058	-1552.0736	-76.113113	163.85217	-222.7504	-80.216331	202.58191	-220.70818
909	7.5666667	-1038.2325	214.54268	-1644.2234	-1109.3793	204.1862	-1599.3638	-1064.0615	172.60211	-1625.369	-1054.2114	262.2959	-1635.0023	-1353.0405	234.70555	1003.7219	-1281.2855	227.15311	1052.382	-1322.6713	193.97653	1020.9329	-1284.6732	287.91644	1052.7789	813.90826	187.8022	1209.5516	892.79065	178.9287	1178.7769	844.35889	145.4126	1198.4319	860.88818	292.46411	1168.4368	1115.6974	209.82739	-1401.7903	1056.0854	193.95128	-1460.3608	1095.0433	162.38348	-1423.8894	1069.8114	238.55167	-1425.7849	-1204.5935	1685.9836	-1563.022	-1129.1719	1688.2854	-1606.0137	-1173.2476	1724.3226	-1581.8291	-1134.0579	1580.9667	-1603.8811	-1240.5947	1698.7313	1118.5005	-1309.189	1698.5894	1071.9246	-1270.3918	1736.2876	1096.9432	-1245.3818	1592.6543	1110.7285	988.84705	1664.2024	1162.2424	955.84186	1702.3099	1181.1139	923.07001	1661.9349	1215.1772	939.77277	1659.402	1159.9341	998.93652	1668.4974	-1579.5205	1058.6633	1669.9735	-1518.7025	1024.9171	1708.0389	-1551.1627	1059.1957	1672.135	-1585.5031	-113.40161	159.97276	-224.00554	-29.184465	168.75229	-221.15039	-72.181366	127.03031	-224.66281	-75.762321	164.97667	-254.81706	-78.456062	163.29729	-175.46368																																														-1069.1204	210.04646	-1624.7478	-1074.3414	248.69011	-1624.1068	-1321.5457	231.39059	1025.08	-1320.3799	270.13586	1029.3746	847.86707	183.98215	1196.3031	851.39453	222.76329	1194.1628	1088.6863	202.63365	-1428.3295	1082.6379	240.92949	-1432.5541	-1171.9833	1686.9786	-1581.6104	-1170.6636	1648.0018	-1581.3822	-1270.9541	1698.6683	1097.8862	-1271.537	1659.6851	1098.8633	953.72461	1704.7545	1182.3243	972.98602	1731.6594	1161.6816	1026.3397	1669.1746	-1551.6165	1027.7664	1630.2034	-1552.0715	-76.086273	163.86282	-222.74046	-80.192413	202.59334	-220.71904
910	7.575	-1038.2311	214.59129	-1644.2517	-1109.3654	204.18675	-1599.3683	-1063.8082	173.07681	-1625.6936	-1054.2308	262.32324	-1635.0289	-1352.9615	234.69919	1003.6989	-1281.3984	227.31633	1052.2941	-1322.689	193.95409	1020.9756	-1284.749	287.86252	1052.8091	813.85205	187.89758	1209.5464	892.41687	178.36273	1179.2871	844.41266	145.41724	1198.4508	860.94238	292.46118	1168.5115	1115.6661	209.55193	-1401.6246	1056.0835	193.91388	-1460.3108	1095.0442	162.37642	-1423.9259	1069.8383	238.64209	-1425.8425	-1204.5167	1685.9181	-1563.1814	-1129.1602	1688.3013	-1606.0293	-1173.1764	1724.2969	-1581.9069	-1134.0498	1580.9689	-1603.8927	-1239.7311	1699.1958	1119.5312	-1309.2576	1698.6261	1071.927	-1270.3585	1736.2365	1096.9189	-1245.4086	1592.6606	1110.7346	988.84485	1664.197	1162.245	955.88849	1702.2948	1181.1129	922.88751	1661.949	1215.1846	939.72699	1659.3917	1159.9506	998.93518	1668.498	-1579.5238	1058.7822	1670.142	-1518.6714	1024.9171	1708.0428	-1551.1648	1059.1971	1672.142	-1585.5062	-113.4521	159.97876	-224.02318	-29.189796	168.74423	-221.14294	-72.207809	127.02116	-224.64629	-75.760025	165.00232	-254.83925	-78.456001	163.30353	-175.43396																																														-1068.7759	210.1236	-1624.9788	-1073.9583	248.77055	-1624.2333	-1321.5651	231.46014	1025.0187	-1320.4036	270.21832	1029.1968	848.2348	183.72478	1196.3037	852.10083	222.47188	1194.132	1088.7074	202.47635	-1428.1777	1082.6532	240.78879	-1432.2401	-1171.8948	1686.9497	-1581.7302	-1170.5573	1647.973	-1581.5458	-1270.9159	1698.9402	1098.1792	-1271.4982	1659.9667	1099.4961	953.68622	1704.8407	1182.3737	973.00739	1731.748	1161.7902	1026.4111	1669.2527	-1551.5862	1027.912	1630.2838	-1552.0095	-76.105324	163.8638	-222.7466	-80.202805	202.5965	-220.74945
911	7.5833333	-1038.2334	214.49554	-1644.1769	-1109.3684	204.21693	-1599.3473	-1064.027	172.59709	-1625.3928	-1054.3146	262.50555	-1635.2614	-1352.9355	234.86795	1003.677	-1281.3491	227.1067	1052.4913	-1322.6675	193.9621	1020.9367	-1284.7853	287.80899	1052.8423	813.97839	187.63985	1209.5616	892.42712	178.44177	1179.2711	844.38257	145.50468	1198.3641	860.96826	292.51843	1168.4932	1115.693	209.82658	-1401.7913	1056.0675	193.92213	-1460.3368	1095.0714	162.51083	-1423.9662	1069.8141	238.56715	-1425.8125	-1204.5221	1685.9034	-1563.1676	-1129.1752	1688.2632	-1605.9886	-1173.2109	1724.3738	-1581.8947	-1134.0663	1580.968	-1603.8763	-1240.6189	1698.7518	1118.5056	-1309.3867	1698.9081	1072.0338	-1270.364	1736.2593	1096.9235	-1245.4474	1592.717	1110.752	988.8797	1664.2477	1162.2748	955.90765	1702.3164	1181.151	922.98334	1661.8845	1215.2284	939.78156	1659.4232	1159.8706	998.93567	1668.4927	-1579.5413	1058.6616	1669.9762	-1518.6812	1024.9161	1708.0397	-1551.1558	1059.1836	1672.152	-1585.4878	-113.42402	160.00101	-224.05571	-29.182037	168.72691	-221.13835	-72.19664	127.02625	-224.68356	-75.782127	165.00024	-254.84029	-78.457024	163.29303	-175.46024																																														-1069.0403	210.0441	-1624.7621	-1074.2148	248.69382	-1624.1113	-1321.4657	231.45605	1025.1359	-1320.2244	270.19409	1029.4745	848.09161	183.64008	1196.3898	851.86182	222.40549	1194.3828	1088.6615	202.61626	-1428.3329	1082.5417	240.90678	-1432.5023	-1171.9238	1686.9242	-1581.6936	-1170.5845	1647.9478	-1581.4845	-1271.1095	1698.8209	1097.9006	-1271.8855	1659.842	1098.9181	953.74591	1704.8121	1182.3885	973.03754	1731.7325	1161.7943	1026.3453	1669.1735	-1551.611	1027.7786	1630.2024	-1552.0673	-76.079414	163.8692	-222.76244	-80.161385	202.60237	-220.74274
912	7.5916667	-1038.2377	214.47021	-1644.183	-1109.3961	204.2433	-1599.3693	-1064.0099	172.61111	-1625.4114	-1054.2333	262.32428	-1635.0402	-1352.9232	234.84904	1003.6982	-1281.3177	227.05476	1052.5117	-1322.7545	193.95045	1020.9577	-1284.8116	287.7663	1052.8972	813.91003	187.76067	1209.5615	892.80426	178.9781	1178.7167	844.36481	145.47708	1198.3153	860.91107	292.48361	1168.4301	1115.7131	209.83456	-1401.7906	1056.0381	193.92923	-1460.3763	1095.0723	162.53696	-1423.9976	1069.8059	238.55428	-1425.8206	-1204.5233	1685.9169	-1563.172	-1129.1572	1688.2751	-1606.0194	-1173.2172	1724.3651	-1581.8983	-1134.0583	1580.9675	-1603.8741	-1240.5143	1698.7897	1118.3494	-1309.163	1698.5518	1071.9186	-1270.375	1736.2672	1096.9316	-1245.496	1592.7855	1110.7554	988.86841	1664.2181	1162.2632	955.80383	1702.3086	1181.098	923.01318	1661.9424	1215.1454	939.77679	1659.4178	1159.9261	998.93536	1668.501	-1579.5228	1058.7697	1670.1403	-1518.6736	1024.9016	1708.0547	-1551.1503	1059.1919	1672.1461	-1585.4978	-113.46312	160.0152	-224.03987	-29.196064	168.72784	-221.12524	-72.173866	126.98957	-224.68591	-75.776215	164.9946	-254.79558	-78.449768	163.32552	-175.47299																																														-1069.0082	210.04784	-1624.8044	-1074.1687	248.69983	-1624.1781	-1321.5081	231.42949	1025.1138	-1320.2197	270.17072	1029.41	847.85883	183.98143	1196.2886	851.37848	222.7686	1194.2471	1088.6604	202.62411	-1428.3495	1082.5356	240.91521	-1432.5066	-1171.9333	1686.9366	-1581.7001	-1170.5963	1647.9601	-1581.4935	-1270.8523	1698.6844	1097.8301	-1271.3474	1659.6987	1098.762	953.66046	1704.7777	1182.3188	972.91931	1731.6956	1161.6906	1026.4069	1669.2535	-1551.5852	1027.9187	1630.2853	-1552.0221	-76.055481	163.88289	-222.746	-80.130669	202.61589	-220.70937
